<svg width="22" height="24" viewBox="0 0 22 24" fill="none" xmlns="http://www.w3.org/2000/svg">
<path d="M2.86641 0.131248C2.38359 0.295311 2.07422 0.492188 1.72266 0.867188C1.39453 1.21875 1.13672 1.71562 1.03828 2.17969C0.935156 2.67188 0.935156 21.3281 1.03828 21.8203C1.23984 22.7766 1.97578 23.5922 2.89453 23.8828L3.26953 24H10.9992H18.7289L19.0992 23.8828C20.0273 23.5875 20.7586 22.7812 20.9601 21.8203C21.0633 21.3281 21.0633 2.67188 20.9601 2.17969C20.7586 1.21875 20.0273 0.412498 19.0992 0.117188L18.7289 0H10.9852H3.24141L2.86641 0.131248ZM16.4508 3.04688C17.1867 3.15469 17.7351 3.64219 17.9133 4.35469C17.9789 4.59375 17.9883 4.84219 17.9742 5.64375L17.9601 6.63281L17.8148 6.9375C17.6367 7.3125 17.3226 7.63594 16.9617 7.81406L16.6945 7.94531H10.9992H5.3039L5.03672 7.81406C4.6664 7.63125 4.3664 7.32656 4.18828 6.94687L4.03828 6.63281L4.02422 5.64375C4.01015 4.84219 4.01953 4.59375 4.08515 4.35469C4.25859 3.66094 4.8164 3.15 5.50547 3.05156C5.88984 2.99531 16.0617 2.99062 16.4508 3.04688ZM7.34297 10.1297C7.60547 10.2797 7.71797 10.5141 7.71797 10.9172V11.25H7.9664C8.31328 11.25 8.56172 11.3297 8.73515 11.4984C9.03984 11.7844 9.04922 12.1547 8.76797 12.4688C8.58984 12.6656 8.33203 12.75 7.9289 12.75H7.71797V13.0828C7.71797 13.3359 7.69453 13.4578 7.61953 13.5938C7.42265 13.9453 6.94922 14.0719 6.63984 13.8609C6.36328 13.6734 6.28828 13.5328 6.27422 13.1297L6.25547 12.7641L5.90859 12.7359C5.3414 12.6937 5.04609 12.4406 5.04609 12C5.04609 11.5594 5.3414 11.3062 5.90859 11.2641L6.25547 11.2359L6.27422 10.8703C6.28828 10.4672 6.36328 10.3266 6.63984 10.1344C6.83672 10.0031 7.10859 9.99844 7.34297 10.1297ZM16.5773 11.6203C16.6664 11.6672 16.793 11.775 16.8492 11.8641C16.943 11.9953 16.957 12.0703 16.943 12.2953C16.9242 12.5109 16.8961 12.5906 16.7836 12.7078C16.5351 12.975 16.4742 12.9844 14.993 12.9844C13.6852 12.9844 13.6383 12.9797 13.4367 12.8766C13.282 12.8016 13.1977 12.7172 13.118 12.5625C12.9352 12.2109 13.0336 11.8781 13.3898 11.6344C13.5398 11.5312 13.568 11.5312 14.9789 11.5312C16.2867 11.5312 16.4273 11.5406 16.5773 11.6203ZM6.01172 16.0781C6.08203 16.1062 6.33515 16.3172 6.56953 16.5469L6.99609 16.9687L7.31953 16.6359C7.7414 16.2047 8.00859 16.0312 8.24297 16.0312C8.57578 16.0312 8.9039 16.2984 8.96484 16.6172C9.0164 16.8984 8.9039 17.1047 8.4539 17.5687L8.02734 18L8.43515 18.4125C8.66015 18.6375 8.87109 18.9 8.91328 19.0031C9.10078 19.4531 8.74453 19.9688 8.24297 19.9688C8.00859 19.9688 7.7414 19.7953 7.31953 19.3641L6.99609 19.0312L6.56953 19.4531C6.33515 19.6828 6.08203 19.8937 6.01172 19.9219C5.55703 20.0953 5.04609 19.7578 5.04609 19.2844C5.04609 18.9797 5.10703 18.8766 5.54765 18.4172L5.95547 17.9953L5.59922 17.6344C5.08359 17.1047 5.04609 17.0437 5.04609 16.7578C5.04609 16.2422 5.53359 15.9 6.01172 16.0781ZM16.5773 16.1203C16.6664 16.1672 16.793 16.275 16.8492 16.3641C16.943 16.4953 16.957 16.5703 16.943 16.7953C16.9242 17.0109 16.8961 17.0906 16.7836 17.2078C16.5351 17.475 16.4742 17.4844 14.993 17.4844C13.6852 17.4844 13.6383 17.4797 13.4367 17.3766C13.282 17.3016 13.1977 17.2172 13.118 17.0625C12.9352 16.7109 13.0336 16.3781 13.3898 16.1344C13.5398 16.0312 13.568 16.0312 14.9789 16.0312C16.2867 16.0312 16.4273 16.0406 16.5773 16.1203ZM16.4976 18.5812C16.7695 18.6984 16.9195 18.9047 16.943 19.1953C16.9617 19.4156 16.9476 19.4812 16.8445 19.6359C16.6289 19.9594 16.5773 19.9688 14.9695 19.9688C13.568 19.9688 13.5398 19.9688 13.3898 19.8609C13.0336 19.6219 12.9352 19.2891 13.118 18.9375C13.1977 18.7828 13.282 18.6984 13.4367 18.6187C13.6383 18.5203 13.6852 18.5156 14.993 18.5156C16.0383 18.5156 16.3805 18.5297 16.4976 18.5812Z" fill="#F7B103"/>
</svg>
