<svg width="24" height="24" viewBox="0 0 24 24" fill="none" xmlns="http://www.w3.org/2000/svg">
<path d="M1.73906 0.84375C1.54688 0.895313 1.29375 0.99375 1.17656 1.06406C0.848438 1.25625 0.45 1.65938 0.285938 1.96875C0.0046875 2.49844 0 2.5125 0 4.62656V6.5625H12H24V4.65C24 2.55938 23.9906 2.48906 23.7188 1.97813C23.55 1.65938 23.1562 1.25625 22.8234 1.06406C22.7063 0.99375 22.4438 0.895313 22.2422 0.84375C21.8813 0.75 21.7266 0.75 11.9813 0.754688C2.34844 0.754688 2.07656 0.759376 1.73906 0.84375ZM4.25156 2.98594C4.34063 3.02813 4.46719 3.14531 4.5375 3.24375C4.78125 3.61406 4.65938 4.0875 4.26094 4.30781C3.70781 4.62188 3.02344 4.08281 3.1875 3.47344C3.31406 3 3.80625 2.775 4.25156 2.98594ZM7.40156 3.00469C7.65 3.14531 7.74844 3.30938 7.77188 3.60938C7.78594 3.82031 7.77188 3.89531 7.67813 4.02656C7.43438 4.3875 7.06406 4.49531 6.70781 4.31719C6.27188 4.09219 6.16406 3.5625 6.47813 3.15938C6.67969 2.90625 7.10156 2.83125 7.40156 3.00469ZM10.5516 3.01406C10.8234 3.19688 10.9313 3.40781 10.9125 3.69375C10.8516 4.40625 10.0078 4.65938 9.57188 4.0875C9.40781 3.86719 9.39375 3.45469 9.54375 3.24844C9.80156 2.90156 10.2328 2.79844 10.5516 3.01406Z" fill="#F7B103"/>
<path d="M0 14.6859C0 21.1453 0 21.3187 0.09375 21.5812C0.295313 22.1672 0.675 22.6453 1.17656 22.9359C1.62656 23.1984 1.9875 23.25 3.43125 23.25H4.73438V15.6562V8.0625H2.36719H0V14.6859Z" fill="#F7B103"/>
<path d="M6.23438 15.6562V23.25H14.0531C21.7219 23.25 21.8813 23.25 22.2422 23.1562C22.4438 23.1047 22.7063 23.0062 22.8234 22.9359C23.3391 22.6359 23.7844 22.0594 23.9344 21.4969C23.9859 21.3 24 20.0859 24 14.6578V8.0625H15.1172H6.23438V15.6562ZM20.4328 11.3438C20.9625 11.6109 20.9625 12.3891 20.4328 12.6562C20.2594 12.75 20.1328 12.75 15.1406 12.75C9.55313 12.75 9.84375 12.7641 9.59531 12.4734C9.28594 12.1031 9.42656 11.5078 9.86719 11.3156C9.97969 11.2641 10.9781 11.2547 15.1313 11.25C20.1375 11.25 20.2594 11.25 20.4328 11.3438ZM20.4375 14.4609C20.7281 14.6109 20.9016 15 20.8172 15.3187C20.7609 15.5156 20.5313 15.7641 20.3297 15.8391C20.2406 15.8766 18.5859 15.8906 15.1125 15.8906C10.1391 15.8906 10.0219 15.8906 9.84375 15.7969C9.56719 15.6562 9.44531 15.45 9.44531 15.1312C9.44531 14.8359 9.53438 14.6766 9.79688 14.4937L9.95156 14.3906H15.1266C19.6031 14.3906 20.3203 14.4 20.4375 14.4609ZM20.2594 17.5312C20.6578 17.6437 20.925 18.0656 20.8172 18.4172C20.7469 18.6656 20.5969 18.8391 20.3719 18.9422C20.1891 19.0266 19.9453 19.0312 15.1125 19.0312H10.0453L9.83906 18.9234C9.23438 18.6 9.31875 17.7281 9.97969 17.5312C10.1719 17.4703 20.0531 17.475 20.2594 17.5312Z" fill="#F7B103"/>
</svg>
