<svg width="110" height="42" viewBox="0 0 110 42" fill="none" xmlns="http://www.w3.org/2000/svg">
<path d="M70.9499 42V0H109.492V41.3714L104.95 37.0958L101.921 42L92.561 36.8444L84.0267 42L77.144 36.7187L70.9499 42Z" fill="white"/>
<path d="M1.91022 30.7308C3.00328 30.7308 3.5498 31.2712 3.5498 32.352C3.5498 32.5057 3.53882 32.6704 3.51686 32.8461H0.819614C0.819614 33.6317 1.2783 34.0245 2.19569 34.0245C2.63242 34.0245 3.02035 33.9758 3.35949 33.8782V34.4271C3.02035 34.5247 2.60802 34.5735 2.12249 34.5735C0.802535 34.5735 0.142557 33.9184 0.142557 32.6082C0.142557 31.3566 0.731779 30.7308 1.91022 30.7308ZM0.819614 32.2825H2.89836C2.88372 31.6091 2.55434 31.2724 1.91022 31.2724C1.22707 31.2724 0.863531 31.6091 0.819614 32.2825Z" fill="white"/>
<path d="M3.91212 30.7308H4.64407L5.74566 33.7427L6.83993 30.7308H7.57189L6.00916 34.5735H5.37968L3.91212 30.7308Z" fill="white"/>
<path d="M9.70553 30.7308C10.7986 30.7308 11.3451 31.2712 11.3451 32.352C11.3451 32.5057 11.3341 32.6704 11.3122 32.8461H8.61492C8.61492 33.6317 9.07361 34.0245 9.99099 34.0245C10.4277 34.0245 10.8157 33.9758 11.1548 33.8782V34.4271C10.8157 34.5247 10.4033 34.5735 9.9178 34.5735C8.59784 34.5735 7.93786 33.9184 7.93786 32.6082C7.93786 31.3566 8.52709 30.7308 9.70553 30.7308ZM8.61492 32.2825H10.6937C10.679 31.6091 10.3497 31.2724 9.70553 31.2724C9.02237 31.2724 8.65884 31.6091 8.61492 32.2825Z" fill="white"/>
<path d="M12.2564 34.5735V30.7308H12.7139L12.8346 31.2212C13.1713 30.8942 13.5763 30.7308 14.0497 30.7308V31.2944C13.591 31.2944 13.2189 31.4566 12.9334 31.7811V34.5735H12.2564Z" fill="white"/>
<path d="M14.2729 30.7308H15.0085L16.0955 33.7318L17.219 30.7308H17.9363L16.3407 34.687C16.0577 35.3848 15.6331 35.8203 15.0671 35.9935L14.8072 35.5141C15.2367 35.3262 15.549 35.02 15.7441 34.5955L14.2729 30.7308Z" fill="white"/>
<path d="M21.0801 33.9038C21.3021 33.9745 21.5717 34.0099 21.8889 34.0099C22.7428 34.0099 23.1698 33.5232 23.1698 32.5497C23.1698 31.7274 22.7831 31.3163 22.0097 31.3163C21.6583 31.3163 21.3485 31.3822 21.0801 31.5139V33.9038ZM20.403 29.34H21.0801V30.9137C21.3704 30.7918 21.6815 30.7308 22.0133 30.7308C23.2284 30.7308 23.8359 31.3456 23.8359 32.5753C23.8359 33.9074 23.1979 34.5735 21.9218 34.5735C21.3704 34.5735 20.8642 34.5211 20.403 34.4161V29.34Z" fill="white"/>
<path d="M25.5011 30.7308V34.5735H24.824V30.7308H25.5011ZM25.5011 29.34V29.9805H24.824V29.34H25.5011Z" fill="white"/>
<path d="M27.3895 29.34V34.5735H26.7125V29.34H27.3895Z" fill="white"/>
<path d="M29.2414 29.34V34.5735H28.5643V29.34H29.2414Z" fill="white"/>
<path d="M32.8865 33.7903C33.1524 33.9221 33.4489 33.988 33.7758 33.988C34.5737 33.988 34.9726 33.5085 34.9726 32.5497C34.9726 31.7128 34.5761 31.2944 33.7831 31.2944C33.4416 31.2944 33.1427 31.3236 32.8865 31.3822V33.7903ZM32.2094 30.8881C32.7194 30.7832 33.2464 30.7308 33.7905 30.7308C35.0226 30.7308 35.6386 31.3395 35.6386 32.557C35.6386 33.9013 35.0189 34.5735 33.7795 34.5735C33.4721 34.5735 33.1744 34.5125 32.8865 34.3905V35.9642H32.2094V30.8881Z" fill="white"/>
<path d="M37.0513 32.6375C37.0513 33.5622 37.4356 34.0245 38.2041 34.0245C38.9727 34.0245 39.357 33.5622 39.357 32.6375C39.357 31.7323 38.9727 31.2797 38.2041 31.2797C37.4356 31.2797 37.0513 31.7323 37.0513 32.6375ZM36.3743 32.6521C36.3743 31.3712 36.9842 30.7308 38.2041 30.7308C39.4241 30.7308 40.034 31.3712 40.034 32.6521C40.034 33.9306 39.4241 34.5699 38.2041 34.5699C36.9891 34.5699 36.3791 33.9306 36.3743 32.6521Z" fill="white"/>
<path d="M40.9124 34.3905V33.805C41.3637 33.9514 41.82 34.0245 42.2811 34.0245C42.8935 34.0245 43.1997 33.8416 43.1997 33.4756C43.1997 33.134 42.9862 32.9632 42.5593 32.9632H42.0103C41.1808 32.9632 40.766 32.585 40.766 31.8287C40.766 31.0967 41.2991 30.7308 42.3653 30.7308C42.824 30.7308 43.279 30.7918 43.7304 30.9137V31.4993C43.279 31.3529 42.824 31.2797 42.3653 31.2797C41.7261 31.2797 41.4064 31.4627 41.4064 31.8287C41.4064 32.1703 41.6077 32.3411 42.0103 32.3411H42.5593C43.4376 32.3411 43.8768 32.7192 43.8768 33.4756C43.8768 34.2075 43.3449 34.5735 42.2811 34.5735C41.82 34.5735 41.3637 34.5125 40.9124 34.3905Z" fill="white"/>
<path d="M44.7551 34.3905V33.805C45.2065 33.9514 45.6628 34.0245 46.1239 34.0245C46.7363 34.0245 47.0425 33.8416 47.0425 33.4756C47.0425 33.134 46.829 32.9632 46.402 32.9632H45.8531C45.0235 32.9632 44.6087 32.585 44.6087 31.8287C44.6087 31.0967 45.1418 30.7308 46.2081 30.7308C46.6667 30.7308 47.1218 30.7918 47.5732 30.9137V31.4993C47.1218 31.3529 46.6667 31.2797 46.2081 31.2797C45.5688 31.2797 45.2492 31.4627 45.2492 31.8287C45.2492 32.1703 45.4505 32.3411 45.8531 32.3411H46.402C47.2804 32.3411 47.7195 32.7192 47.7195 33.4756C47.7195 34.2075 47.1877 34.5735 46.1239 34.5735C45.6628 34.5735 45.2065 34.5125 44.7551 34.3905Z" fill="white"/>
<path d="M49.3847 30.7308V34.5735H48.7077V30.7308H49.3847ZM49.3847 29.34V29.9805H48.7077V29.34H49.3847Z" fill="white"/>
<path d="M51.2366 33.9038C51.4586 33.9745 51.7282 34.0099 52.0454 34.0099C52.8993 34.0099 53.3263 33.5232 53.3263 32.5497C53.3263 31.7274 52.9396 31.3163 52.1662 31.3163C51.8148 31.3163 51.505 31.3822 51.2366 31.5139V33.9038ZM50.5595 29.34H51.2366V30.9137C51.5269 30.7918 51.838 30.7308 52.1698 30.7308C53.3849 30.7308 53.9924 31.3456 53.9924 32.5753C53.9924 33.9074 53.3544 34.5735 52.0783 34.5735C51.5269 34.5735 51.0206 34.5211 50.5595 34.4161V29.34Z" fill="white"/>
<path d="M55.621 29.34V34.5735H54.9439V29.34H55.621Z" fill="white"/>
<path d="M58.3438 30.7308C59.4369 30.7308 59.9834 31.2712 59.9834 32.352C59.9834 32.5057 59.9724 32.6704 59.9505 32.8461H57.2532C57.2532 33.6317 57.7119 34.0245 58.6293 34.0245C59.066 34.0245 59.454 33.9758 59.7931 33.8782V34.4271C59.454 34.5247 59.0416 34.5735 58.5561 34.5735C57.2362 34.5735 56.5762 33.9184 56.5762 32.6082C56.5762 31.3566 57.1654 30.7308 58.3438 30.7308ZM57.2532 32.2825H59.332C59.3173 31.6091 58.988 31.2724 58.3438 31.2724C57.6607 31.2724 57.2972 31.6091 57.2532 32.2825Z" fill="white"/>
<path d="M0 24.2699V3.796H8.30412C12.4848 3.796 14.5752 5.62386 14.5752 9.27958C14.5752 13.2598 11.7164 15.689 5.99901 16.5672L5.45495 14.3336C9.65473 13.7132 11.7546 12.0667 11.7546 9.39412C11.7546 7.12242 10.5233 5.98657 8.06072 5.98657H2.64873V24.2699H0Z" fill="white"/>
<path d="M19.7438 16.696C19.7438 20.3136 21.2471 22.1223 24.2537 22.1223C27.2604 22.1223 28.7637 20.3136 28.7637 16.696C28.7637 13.1548 27.2604 11.3842 24.2537 11.3842C21.2471 11.3842 19.7438 13.1548 19.7438 16.696ZM17.095 16.7533C17.095 11.7422 19.4813 9.23663 24.2537 9.23663C29.0262 9.23663 31.4125 11.7422 31.4125 16.7533C31.4125 21.7548 29.0262 24.2556 24.2537 24.2556C19.5004 24.2556 17.1141 21.7548 17.095 16.7533Z" fill="white"/>
<path d="M34.8487 23.5541V21.2633C36.6145 21.836 38.3994 22.1223 40.2034 22.1223C42.5992 22.1223 43.7971 21.4065 43.7971 19.9747C43.7971 18.6384 42.9619 17.9703 41.2915 17.9703H39.1439C35.8986 17.9703 34.276 16.4908 34.276 13.5319C34.276 10.6684 36.3615 9.23663 40.5327 9.23663C42.3271 9.23663 44.1073 9.47525 45.8731 9.9525V12.2433C44.1073 11.6706 42.3271 11.3842 40.5327 11.3842C38.0319 11.3842 36.7815 12.1001 36.7815 13.5319C36.7815 14.8682 37.569 15.5363 39.1439 15.5363H41.2915C44.7277 15.5363 46.4458 17.0158 46.4458 19.9747C46.4458 22.8382 44.365 24.2699 40.2034 24.2699C38.3994 24.2699 36.6145 24.0313 34.8487 23.5541Z" fill="white"/>
<path d="M49.882 23.5541V21.2633C51.6478 21.836 53.4327 22.1223 55.2367 22.1223C57.6325 22.1223 58.8304 21.4065 58.8304 19.9747C58.8304 18.6384 57.9952 17.9703 56.3248 17.9703H54.1772C50.9319 17.9703 49.3093 16.4908 49.3093 13.5319C49.3093 10.6684 51.3949 9.23663 55.566 9.23663C57.3605 9.23663 59.1406 9.47525 60.9064 9.9525V12.2433C59.1406 11.6706 57.3605 11.3842 55.566 11.3842C53.0652 11.3842 51.8148 12.1001 51.8148 13.5319C51.8148 14.8682 52.6023 15.5363 54.1772 15.5363H56.3248C59.761 15.5363 61.4791 17.0158 61.4791 19.9747C61.4791 22.8382 59.3983 24.2699 55.2367 24.2699C53.4327 24.2699 51.6478 24.0313 49.882 23.5541Z" fill="white"/>
<path d="M67.9935 9.23663V24.2699H65.3448V9.23663H67.9935ZM67.9935 3.796V6.30155H65.3448V3.796H67.9935Z" fill="white"/>
<path d="M75.1443 21.4741C76.0129 21.7509 77.0676 21.8893 78.3084 21.8893C81.6492 21.8893 83.3195 19.9851 83.3195 16.1766C83.3195 12.96 81.8067 11.3517 78.7809 11.3517C77.4064 11.3517 76.1942 11.6094 75.1443 12.1248V21.4741ZM72.4956 3.62024H75.1443V6.69849V9.77674C76.2801 9.2995 77.4971 9.06087 78.7952 9.06087C83.5486 9.06087 85.9253 11.4662 85.9253 16.2769C85.9253 21.4884 83.4293 24.0942 78.4373 24.0942C76.2801 24.0942 74.2996 23.889 72.4956 23.4785V3.62024Z" fill="#1B1D33"/>
<path d="M92.4398 9.06087V24.0942H89.791V9.06087H92.4398ZM92.4398 3.62024V6.1258H89.791V3.62024H92.4398Z" fill="#1B1D33"/>
<path d="M99.8276 3.62024V24.0942H97.1788V3.62024H99.8276Z" fill="#1B1D33"/>
<path d="M107.072 3.62024V24.0942H104.423V3.62024H107.072Z" fill="#1B1D33"/>
</svg>
