<svg width="24" height="24" viewBox="0 0 24 24" fill="none" xmlns="http://www.w3.org/2000/svg">
<path d="M2.18244 0.0939636C1.40432 0.318964 0.705881 0.881464 0.344944 1.57521C-0.00193125 2.25021 -0.00193124 2.22678 0.0121313 4.96428L0.0261938 7.39709L0.162131 7.58928C0.504319 8.08615 1.26838 8.16115 1.70432 7.74865C2.00432 7.4674 1.99494 7.56115 2.01838 5.04396L2.04182 2.74709L2.17307 2.52678C2.25744 2.38146 2.37932 2.25959 2.52463 2.17521L2.74494 2.04396L5.04182 2.02053C7.55901 1.99709 7.46526 2.00646 7.74651 1.70646C8.15901 1.27053 8.08401 0.506464 7.58713 0.164276L7.39495 0.0283389L4.92932 0.0189638C2.70744 0.00958824 2.43557 0.0189638 2.18244 0.0939636Z" fill="#F7B103"/>
<path d="M16.5732 0.0705271C15.9591 0.342402 15.795 1.21896 16.2591 1.70646C16.5403 2.00646 16.4466 1.99709 18.9638 2.02053L21.2607 2.04396L21.481 2.17521C21.6263 2.25959 21.7482 2.38146 21.8325 2.52678L21.9638 2.74709L21.9872 5.04396C22.0107 7.56115 22.0013 7.4674 22.3013 7.74865C22.7372 8.16115 23.5013 8.08615 23.8435 7.58928L23.9794 7.39709L23.9935 4.96428C24.0075 2.22678 24.0075 2.25021 23.6607 1.57521C23.3982 1.06896 22.9388 0.60959 22.4325 0.347089C21.7669 0.00490189 21.781 0.00490189 19.0997 0.00490189C17.22 0.0095892 16.6857 0.0236521 16.5732 0.0705271Z" fill="#F7B103"/>
<path d="M6.49375 5.05156C5.77656 5.225 5.2 5.81562 5.04062 6.5375C4.97968 6.82344 4.97031 7.15625 4.97968 8.58594L4.99375 10.2969L5.11093 10.5078C5.17656 10.6203 5.32187 10.7797 5.42968 10.8594C5.61718 10.9859 5.66875 11 6.00156 11C6.33437 11 6.38594 10.9859 6.57344 10.8594C6.68125 10.7797 6.82656 10.6203 6.89219 10.5078L7.00937 10.2969L7.02344 8.66562L7.0375 7.03906H12.0016H16.9656L16.9797 8.66562L16.9938 10.2969L17.1109 10.5078C17.1766 10.6203 17.3219 10.7797 17.4297 10.8594C17.6172 10.9859 17.6688 11 18.0016 11C18.3344 11 18.3859 10.9859 18.5734 10.8594C18.6813 10.7797 18.8266 10.6203 18.8922 10.5078L19.0094 10.2969L19.0234 8.58594C19.0328 7.15625 19.0234 6.82344 18.9625 6.5375C18.7984 5.80156 18.2219 5.225 17.4859 5.05156C17.0453 4.94375 6.92969 4.94844 6.49375 5.05156Z" fill="#F7B103"/>
<path d="M3.53297 13.1015C3.18141 13.2797 3.03141 13.5187 3.01266 13.9453C2.9986 14.2125 3.01266 14.3203 3.08766 14.4656C3.31266 14.9015 3.54704 15 4.36266 15H4.97204V16.0828C4.97204 17.3484 5.0236 17.6578 5.29548 18.0797C5.60016 18.5531 6.05016 18.8625 6.60329 18.9797C6.77673 19.0172 8.3986 19.0312 12.008 19.0312C17.7783 19.0312 17.5674 19.0406 18.083 18.7078C18.547 18.4078 18.8377 18 18.9595 17.4843C19.0158 17.2593 19.0345 16.9031 19.0345 16.0875V15H19.658C20.2205 15 20.3049 14.9906 20.4924 14.8922C20.6189 14.8265 20.7596 14.6953 20.8533 14.55C21.0033 14.3297 21.0127 14.3015 20.9939 13.964C20.9752 13.5187 20.8345 13.2843 20.4736 13.1015L20.2345 12.9843H12.0033H3.77204L3.53297 13.1015Z" fill="#F7B103"/>
<path d="M0.532444 16.1069C0.382444 16.1819 0.246506 16.2991 0.162131 16.421L0.0261938 16.6132L0.0121313 19.046C-0.00193124 21.7835 -0.00193125 21.76 0.344944 22.435C0.607444 22.946 1.06682 23.4007 1.57776 23.6679C2.23401 24.0054 2.26682 24.01 4.99026 23.996L7.39495 23.9819L7.58713 23.846C8.08401 23.5038 8.15901 22.7397 7.74651 22.3038C7.46526 22.0038 7.55901 22.0132 5.04182 21.9897L2.74494 21.9663L2.52463 21.835C2.37932 21.7507 2.25744 21.6288 2.17307 21.4835L2.04182 21.2632L2.01838 18.9663C1.99494 16.4491 2.00432 16.5429 1.70432 16.2616C1.39963 15.9663 0.935569 15.9101 0.532444 16.1069Z" fill="#F7B103"/>
<path d="M22.5967 16.0647C22.3998 16.1491 22.1935 16.3366 22.0904 16.5288C22.0201 16.6507 22.006 16.9413 21.9873 18.9663L21.9638 21.2632L21.8326 21.4835C21.7482 21.6288 21.6263 21.7507 21.481 21.835L21.2607 21.9663L18.9638 21.9897C16.4467 22.0132 16.5404 22.0038 16.2592 22.3038C15.8467 22.7397 15.9217 23.5038 16.4185 23.846L16.6107 23.9819L19.0154 23.996C21.7388 24.01 21.7717 24.0054 22.4279 23.6679C22.9388 23.4007 23.3982 22.946 23.6607 22.435C24.0076 21.76 24.0076 21.7835 23.9935 19.046L23.9795 16.6132L23.8435 16.421C23.5857 16.0507 23.0138 15.8866 22.5967 16.0647Z" fill="#F7B103"/>
</svg>
