<svg width="12" height="14" viewBox="0 0 12 14" fill="none" xmlns="http://www.w3.org/2000/svg">
<path d="M5.9999 0.164062C4.60327 0.164063 3.26384 0.718873 2.27627 1.70644C1.2887 2.69401 0.733887 4.03344 0.733887 5.43008C0.733887 7.76367 4.12334 12.002 5.46357 13.5871C5.52958 13.665 5.61174 13.7275 5.70436 13.7704C5.79698 13.8133 5.89783 13.8356 5.9999 13.8356C6.10197 13.8356 6.20282 13.8133 6.29544 13.7704C6.38806 13.7275 6.47022 13.665 6.53623 13.5871C7.8749 12.002 11.2659 7.76367 11.2659 5.43008C11.2659 4.73853 11.1297 4.05376 10.8651 3.41486C10.6004 2.77596 10.2125 2.19544 9.72353 1.70644C9.23454 1.21745 8.65402 0.829556 8.01512 0.564914C7.37621 0.300272 6.69144 0.164062 5.9999 0.164062ZM5.9999 7.18555C5.6527 7.18555 5.3133 7.08259 5.02461 6.8897C4.73593 6.6968 4.51093 6.42264 4.37806 6.10187C4.24519 5.7811 4.21043 5.42813 4.27816 5.0876C4.3459 4.74708 4.51309 4.43428 4.7586 4.18877C5.0041 3.94327 5.3169 3.77607 5.65743 3.70834C5.99795 3.6406 6.35092 3.67537 6.67169 3.80824C6.99246 3.9411 7.26663 4.16611 7.45952 4.45479C7.65241 4.74348 7.75537 5.08288 7.75537 5.43008C7.75537 5.89566 7.57042 6.34217 7.2412 6.67138C6.91199 7.0006 6.46548 7.18555 5.9999 7.18555Z" fill="#D4D4D4"/>
</svg>
