<svg width="134" height="41" viewBox="0 0 134 41" fill="none" xmlns="http://www.w3.org/2000/svg">
<path d="M68.3961 0L58.762 4.9566L62.0901 5.6767L59.9597 15.5577C58.3657 14.4578 56.3003 13.8354 55.4339 13.6523C51.9596 12.9186 48.7441 13.5545 45.7873 15.5577C44.3708 16.5203 43.1669 17.7453 42.168 19.2312C41.1628 20.7172 40.4802 22.3022 40.1239 23.9725C39.3625 27.4766 39.9313 30.7566 41.8241 33.8214C43.8095 37.0631 46.8062 39.0997 50.8032 39.9448C54.7601 40.7824 58.3732 40.0363 61.635 37.7114C64.3742 35.7726 66.147 32.9244 66.9546 29.1729L71.5729 7.75287L74.5834 8.43339L68.3961 0ZM53.7524 30.9373C51.5058 30.9373 49.6842 29.1345 49.6842 26.9111C49.6842 24.6877 51.5058 22.885 53.7524 22.885C55.999 22.885 57.8206 24.6877 57.8206 26.9111C57.8206 29.1345 55.999 30.9373 53.7524 30.9373Z" fill="#585655"/>
<path d="M9.63175 16.6641C10.7644 16.6641 11.8684 16.8834 12.9413 17.3221C14.0141 17.7608 14.9546 18.382 15.7605 19.1847C17.4059 20.8009 18.2292 22.7334 18.2292 24.9807C18.2292 26.0627 18.0084 27.119 17.5668 28.152C17.1252 29.185 16.5015 30.093 15.6956 30.8736C14.0178 32.5119 11.9745 33.3305 9.56564 33.3305C7.10316 33.3305 5.02115 32.496 3.32087 30.8258C1.66425 29.1874 0.835938 27.2501 0.835938 25.0126C0.835938 23.8987 1.06173 22.8204 1.51455 21.7764C1.96738 20.7323 2.60234 19.8317 3.41942 19.0707C5.14216 17.4667 7.21294 16.6641 9.63175 16.6641ZM9.50077 22.6696C8.86831 22.6696 8.32941 22.889 7.88282 23.3277C7.41378 23.7884 7.1805 24.3398 7.1805 24.9819C7.1805 25.624 7.41502 26.1755 7.88282 26.6362C8.34064 27.0969 8.897 27.3261 9.55067 27.3261C10.2156 27.3261 10.7707 27.0957 11.2185 26.6362C11.6651 26.1755 11.8884 25.6302 11.8884 24.9979C11.8884 24.3447 11.6539 23.7933 11.1861 23.3436C10.7158 22.8939 10.1544 22.6696 9.50077 22.6696Z" fill="#585655"/>
<path d="M35.6225 33.3305H29.4203V24.4679C29.4203 23.7291 29.3153 23.2255 29.1052 22.9584C28.8509 22.6263 28.475 22.4609 27.9777 22.4609C27.4247 22.4609 27.0273 22.6533 26.7843 23.0392C26.6072 23.2966 26.5186 23.772 26.5186 24.4679V33.3305H20.3164V23.9692C20.3164 21.711 20.8973 19.9773 22.0577 18.7667C23.4067 17.3649 25.3796 16.6641 27.9777 16.6641C30.8073 16.6641 32.8865 17.4887 34.2127 19.1367C35.1517 20.3142 35.6225 21.9255 35.6225 23.9692V33.3305Z" fill="#585655"/>
<path d="M90.8066 17.3594H96.8458V26.3838C96.8458 27.7258 96.6733 28.8069 96.3295 29.626C95.78 30.946 94.8817 31.9309 93.6322 32.5805C92.6747 33.0803 91.5595 33.3313 90.2903 33.3313C88.9127 33.3313 87.7494 33.0437 86.8031 32.4684C86.4482 32.2453 86.028 31.8992 85.5437 31.4299C84.9732 31.8882 84.4889 32.2283 84.0909 32.4525C83.0583 33.0376 81.9012 33.3313 80.6197 33.3313C78.531 33.3313 76.8416 32.6658 75.549 31.3348C74.44 30.1952 73.8867 28.6838 73.8867 26.7982V17.3594H79.9259V25.8561C79.9259 26.9957 80.335 27.5649 81.1532 27.5649C81.6585 27.5649 82.0146 27.3516 82.2191 26.9262C82.3054 26.7349 82.3485 26.346 82.3485 25.761V17.3594H88.3877V25.761C88.3877 26.964 88.8018 27.5661 89.6311 27.5661C90.1363 27.5661 90.4924 27.3321 90.697 26.8628C90.7721 26.6922 90.8103 26.2827 90.8103 25.633V17.3594H90.8066Z" fill="#585655"/>
<path d="M116.327 33.4793H110.149V26.5111C110.149 25.5161 109.989 24.7883 109.67 24.3276C109.23 23.6855 108.57 23.3645 107.689 23.3645C107.072 23.3645 106.538 23.563 106.087 23.9588C105.591 24.3864 105.343 24.9378 105.343 25.6117C105.343 26.2758 105.569 26.8272 106.02 27.2658C106.46 27.6837 106.989 27.892 107.606 27.892C108.135 27.892 108.647 27.7854 109.142 27.5709V33.4793C108.58 33.8432 107.843 34.0258 106.929 34.0258C104.56 34.0258 102.574 33.0946 100.965 31.2321C99.6117 29.6699 98.9336 27.8503 98.9336 25.7734C98.9336 23.28 99.8411 21.2239 101.659 19.6078C103.344 18.1092 105.363 17.3594 107.72 17.3594C110.473 17.3594 112.692 18.3494 114.377 20.3295C115.676 21.8599 116.326 23.7762 116.326 26.0773V33.4793H116.327Z" fill="#585655"/>
<path d="M121.432 40.3296V35.1234C122.261 35.4656 122.986 35.6355 123.608 35.6355C125.593 35.6355 126.88 34.5403 127.47 32.3522C126.401 32.9719 125.353 33.2812 124.328 33.2812C122.811 33.2812 121.563 32.7287 120.581 31.6236C119.6 30.5186 119.109 29.1116 119.109 27.4026V17.3594H125.228V25.9455C125.228 26.8966 125.632 27.3709 126.44 27.3709C127.214 27.3709 127.602 26.8477 127.602 25.8013V17.3594H133.72V31.615C133.72 34.2738 132.956 36.4203 131.429 38.0547C129.607 39.9983 127.403 40.9701 124.819 40.9701C123.683 40.9701 122.555 40.7562 121.432 40.3296Z" fill="#585655"/>
<path d="M59.2743 20.2026C58.9691 19.9341 58.6435 19.6796 58.3077 19.4453L57.8828 20.1312C58.1953 20.3485 58.4975 20.5859 58.7808 20.8342L59.2743 20.2026Z" fill="white"/>
<path d="M56.4934 18.6817C55.847 18.3806 55.1725 18.1727 54.4869 18.0625L54.4062 18.8772C55.0417 18.9781 55.6686 19.172 56.2698 19.4514L56.4934 18.6817Z" fill="white"/>
<path d="M48.845 20.1008L48.4789 19.4453C47.8574 19.8818 47.279 20.3986 46.7578 20.9811L47.2451 21.5286C47.7298 20.9855 48.2691 20.5052 48.845 20.1008Z" fill="white"/>
<path d="M46.7578 34.5912C47.2841 35.1719 47.8675 35.6846 48.4911 36.1146L48.845 35.4452C48.2655 35.0463 47.7236 34.5705 47.2349 34.0312L46.7578 34.5912Z" fill="white"/>
<path d="M50.2344 36.2525C50.8905 36.5399 51.5735 36.7282 52.2639 36.8107L52.3216 35.9404C51.6802 35.8644 51.0462 35.6911 50.4367 35.4219L50.2344 36.2525Z" fill="white"/>
<path d="M52.2518 18.9169L52.3216 18.9088L52.2885 18.4816L52.1894 18.0625C51.5246 18.1551 50.8673 18.35 50.2344 18.6375L50.4449 19.4514C51.0313 19.1817 51.6409 19.003 52.2518 18.9169Z" fill="white"/>
<path d="M44.668 30.7852C44.8912 31.4374 45.1853 32.0625 45.5433 32.6458L46.0594 32.2914C45.727 31.75 45.4538 31.1679 45.2469 30.5625L44.668 30.7852Z" fill="white"/>
<path d="M46.0594 22.5744L45.5325 22.2266C45.1773 22.8141 44.8867 23.4421 44.668 24.0948L45.2549 24.3099C45.4596 23.7052 45.7301 23.1213 46.0594 22.5744Z" fill="white"/>
<path d="M44.6095 27.3693C44.6095 27.2188 44.6131 27.067 44.6203 26.9152C44.6287 26.7621 44.6407 26.6103 44.6552 26.4597L44.0231 26.3906C44.0063 26.5523 43.9931 26.7152 43.9847 26.8794C43.9763 27.0435 43.9727 27.2064 43.9727 27.3681C43.9727 27.7359 43.9943 28.1086 44.0363 28.4739L44.6684 28.3974C44.6287 28.058 44.6095 27.7112 44.6095 27.3693Z" fill="white"/>
<path d="M62.5126 25.747L62.0625 27.7812L62.7415 27.9325L63.1917 25.8982L62.5126 25.747Z" fill="white"/>
<path d="M64.5986 13.9423L64.1484 15.9766L64.8275 16.1278L65.2776 14.0935L64.5986 13.9423Z" fill="white"/>
<path d="M63.2079 21.5829L62.7578 23.6172L63.4368 23.7684L63.887 21.7341L63.2079 21.5829Z" fill="white"/>
<path d="M63.9033 18.1064L63.4531 20.1406L64.1322 20.2918L64.5823 18.2576L63.9033 18.1064Z" fill="white"/>
<path d="M54.4062 36.0324L54.4979 36.8107C55.181 36.6904 55.8531 36.4676 56.4934 36.1482L56.2478 35.4219C55.6564 35.716 55.0368 35.9225 54.4062 36.0324Z" fill="white"/>
<path d="M60.668 31.6443L61.2596 31.9505C61.5973 31.3455 61.8665 30.7027 62.0594 30.0416L61.4119 29.8672C61.2329 30.4832 60.9828 31.0808 60.668 31.6443Z" fill="white"/>
<path d="M57.8828 34.8278L58.3 35.4271C58.909 34.9664 59.471 34.4288 59.97 33.8296L59.4335 33.3438C58.9707 33.901 58.4489 34.3994 57.8828 34.8278Z" fill="white"/>
<path d="M65.9942 9.77152L65.5391 11.8047L66.2185 11.9541L66.6736 9.92092L65.9942 9.77152Z" fill="white"/>
<path d="M66.6895 6.29495L66.2344 8.32812L66.9138 8.47753L67.3689 6.44436L66.6895 6.29495Z" fill="white"/>
<path d="M67.3846 2.82616L66.9297 4.85938L67.6091 5.00871L68.0641 2.9755L67.3846 2.82616Z" fill="white"/>
</svg>
