<svg width="18" height="24" viewBox="0 0 18 24" fill="none" xmlns="http://www.w3.org/2000/svg">
<path d="M1.65507 0.748724C1.39726 0.800287 1.22851 0.894037 1.0457 1.08622C0.726948 1.41904 0.750385 0.579975 0.750385 11.2581C0.750385 20.5112 0.755073 20.9378 0.839448 21.1159C0.94726 21.355 1.25664 21.6362 1.48632 21.7018C1.6082 21.7346 2.50351 21.7487 4.39257 21.7393L7.1207 21.7253L6.30976 19.4987L5.50351 17.2722L4.02695 17.2487C2.98632 17.23 2.52695 17.2065 2.45663 17.169C2.40038 17.1362 2.33007 17.0425 2.30195 16.9628C2.26445 16.855 2.25038 14.9847 2.25038 10.4893C2.25038 3.5331 2.23632 3.9081 2.53163 3.80029C2.74726 3.72529 13.7488 3.72529 13.9644 3.80029C14.0441 3.82841 14.1332 3.88935 14.1566 3.93622C14.1848 3.99247 14.2035 5.76903 14.2035 8.77841V13.5315L14.4332 13.5643C14.7426 13.6065 15.1691 13.8268 15.4363 14.0847C15.5582 14.2018 15.6801 14.2956 15.7035 14.2956C15.7363 14.2956 15.7504 12.069 15.7504 7.92997C15.7504 1.83154 15.7457 1.55966 15.6613 1.38154C15.5535 1.14716 15.3191 0.922161 15.0707 0.809662C14.8926 0.729975 14.5316 0.725286 8.36757 0.715912C4.78163 0.715912 1.76288 0.729975 1.65507 0.748724ZM9.58632 2.34247C9.80663 2.52529 9.75976 2.8206 9.48788 2.9331C9.34726 2.99404 9.11288 3.00341 8.15195 2.98935C7.02695 2.97529 6.98476 2.9706 6.88632 2.87216C6.69413 2.68466 6.79257 2.3331 7.05038 2.28154C7.10195 2.26747 7.67851 2.26278 8.32538 2.26747C9.28163 2.27216 9.51601 2.28622 9.58632 2.34247Z" fill="#F7B103"/>
<path d="M7.75781 6.08765C7.27031 6.31265 7.01719 6.87046 7.14375 7.43296L7.17656 7.57827L6.7875 7.70484C5.76562 8.03765 5.03438 8.75952 4.68281 9.7814C4.63594 9.92671 4.59375 10.0626 4.59375 10.0861C4.59375 10.1048 5.62031 10.1236 6.87188 10.1236H9.15L9.46406 9.9689C9.75938 9.82827 9.80156 9.8189 10.3125 9.8189C10.8234 9.8189 10.8656 9.82827 11.1609 9.9689C11.4609 10.1189 11.9063 10.1845 11.9063 10.0861C11.9063 10.0626 11.8641 9.92671 11.8172 9.7814C11.4656 8.76421 10.7344 8.03765 9.72188 7.70484L9.34219 7.58296L9.36563 7.24077C9.37969 7.03921 9.36563 6.83296 9.32812 6.72515C9.25313 6.49077 8.97656 6.19077 8.74219 6.08765C8.48906 5.97046 8.00625 5.97046 7.75781 6.08765Z" fill="#F7B103"/>
<path d="M9.7719 10.5891C9.5094 10.7062 9.29847 10.8984 9.14847 11.1516L9.0219 11.3672L8.99847 13.9594L8.97503 16.5516L8.7219 16.125C8.22972 15.2953 7.85003 15 7.26409 15C6.52815 15.0047 5.97972 15.5672 5.9844 16.3125C5.98909 16.5891 6.07815 16.8609 6.87972 19.0734C7.56409 20.9484 7.8219 21.5953 7.9719 21.825C8.21565 22.2047 8.89065 22.8469 9.2844 23.0719L9.5844 23.25H12.5797H15.575L15.7391 23.0719C16.2125 22.575 16.6625 21.8578 16.9344 21.1641C17.2344 20.4047 17.2485 20.2547 17.2485 17.9859V15.9562L17.1266 15.7125C16.9907 15.4359 16.7563 15.2109 16.461 15.0844C16.3016 15.0094 16.1844 14.9953 15.8985 15.0141C15.7016 15.0234 15.4813 15.0516 15.4157 15.0703C15.3125 15.0984 15.2891 15.0844 15.2657 14.9906C15.2188 14.8031 14.9141 14.4984 14.6516 14.3672C14.4266 14.2547 14.3563 14.2453 14.0282 14.2641C13.8266 14.2734 13.611 14.3016 13.5453 14.3156C13.4469 14.3438 13.4188 14.3297 13.3719 14.2172C13.2688 13.9828 13.0344 13.7437 12.786 13.6219C12.5938 13.5234 12.4766 13.5 12.2047 13.5C12.0172 13.5 11.811 13.5187 11.7453 13.5469L11.6235 13.5938V12.525C11.6235 11.4703 11.6235 11.4516 11.5016 11.2125C11.3657 10.9406 11.1313 10.7156 10.8547 10.5891C10.5922 10.4719 10.0297 10.4719 9.7719 10.5891Z" fill="#F7B103"/>
<path d="M3.87587 10.9313C3.69306 11.0625 3.69774 11.5313 3.88993 11.925C4.02118 12.1922 4.30712 12.4781 4.58368 12.6141C4.79931 12.7219 4.83212 12.7219 6.55243 12.7359L8.29618 12.75V12.0891C8.29618 11.55 8.31493 11.3813 8.38993 11.1656C8.44149 11.0156 8.48368 10.8891 8.48368 10.8844C8.48368 10.875 7.46649 10.8703 6.21962 10.8703C4.48056 10.8703 3.93681 10.8844 3.87587 10.9313Z" fill="#F7B103"/>
<path d="M12.1406 10.8984C12.1406 10.9125 12.1734 11.0016 12.2156 11.1C12.2531 11.1937 12.3141 11.4937 12.3469 11.7656L12.4031 12.2578L12.5203 12.0703C12.6891 11.8078 12.75 11.6062 12.75 11.3156C12.75 10.9875 12.6469 10.875 12.3516 10.875C12.2344 10.875 12.1406 10.8844 12.1406 10.8984Z" fill="#F7B103"/>
</svg>
