<svg width="24" height="22" viewBox="0 0 24 22" fill="none" xmlns="http://www.w3.org/2000/svg">
<path d="M15.075 1.65312C13.6125 2.28125 12.3516 2.84375 12.2766 2.89531C11.9953 3.09219 12 3.06875 12 5.34219C12 6.49062 12.0234 7.64375 12.0516 7.91094C12.375 11.0844 13.9031 13.2172 17.2969 15.2328C17.6953 15.4719 17.775 15.5 18.0047 15.5C18.2391 15.5 18.3047 15.4719 18.825 15.1578C21.5766 13.4891 23.0672 11.75 23.6625 9.52344C23.9438 8.46875 23.9625 8.25312 23.986 5.675C24.0094 3.03594 24.0141 3.10156 23.7235 2.89531C23.6485 2.84375 22.3828 2.28125 20.9063 1.64844C18.525 0.626562 18.2016 0.499999 17.9859 0.504687C17.775 0.504687 17.3766 0.664062 15.075 1.65312ZM20.6156 5.14062C20.9531 5.34687 21.061 5.81562 20.8406 6.13437C20.4985 6.64062 17.7 10.0672 17.5828 10.1328C17.3859 10.2312 17.0719 10.2219 16.8891 10.1094C16.7813 10.0437 16.4719 9.62656 15.8906 8.75C15.0938 7.55469 15.0469 7.47031 15.0469 7.25937C15.0469 6.85156 15.3469 6.54688 15.75 6.54688C16.0922 6.54688 16.2141 6.65937 16.7625 7.48438C17.0391 7.89687 17.2828 8.23437 17.3016 8.23437C17.325 8.23437 17.8922 7.55 18.5625 6.71094C19.2328 5.87656 19.8375 5.15937 19.9078 5.12187C20.0953 5.01875 20.4328 5.02812 20.6156 5.14062Z" fill="#F7B103"/>
<path d="M0.970312 5.07031C0.721875 5.16406 0.440625 5.37969 0.276562 5.6C0.009375 5.96562 0 6.03125 0 7.84062V9.5H5.41875H10.8375L10.8094 9.34531C10.6219 8.42656 10.5562 7.74219 10.5187 6.22812L10.4859 5L5.81719 5.00469C1.92656 5.00469 1.12031 5.01875 0.970312 5.07031Z" fill="#F7B103"/>
<path d="M0.009375 16.4703L0.0234375 20.4453L0.13125 20.6656C0.271875 20.9469 0.553125 21.2281 0.834375 21.3687L1.05469 21.4766H12H22.9453L23.1656 21.3687C23.4469 21.2281 23.7281 20.9469 23.8688 20.6656L23.9766 20.4453L23.9906 16.4703C23.9953 13.7516 23.9859 12.5 23.9531 12.5C23.925 12.5 23.8359 12.5984 23.7516 12.7203C23.2688 13.4187 22.3125 14.4172 21.5156 15.0547C20.5781 15.8047 19.1391 16.7141 18.6562 16.8641C18.2719 16.9812 17.7281 16.9812 17.3438 16.8641C16.7719 16.6859 15.2625 15.7016 14.2125 14.825C13.4859 14.2156 12.5016 13.1469 12.2016 12.6359L12.1219 12.5H6.06094H0L0.009375 16.4703ZM7.07813 15.6219C7.57969 15.9172 7.57969 16.5828 7.07813 16.8781C6.91875 16.9719 6.84375 16.9766 5.25 16.9766C3.65625 16.9766 3.58125 16.9719 3.42188 16.8781C2.83125 16.5359 2.95781 15.7062 3.62344 15.5422C3.70313 15.5234 4.48125 15.5094 5.34375 15.5141C6.83438 15.5234 6.92344 15.5281 7.07813 15.6219Z" fill="#F7B103"/>
</svg>
