<svg width="24" height="25" viewBox="0 0 24 25" fill="none" xmlns="http://www.w3.org/2000/svg">
<path d="M10.8689 1.03813C8.11264 1.31938 5.64701 2.44907 3.7017 4.31001C1.77983 6.15688 0.528264 8.52876 0.111077 11.1303C-0.0107982 11.8803 -0.0389232 13.6569 0.0595143 14.4584C0.331389 16.685 1.17514 18.6959 2.60951 20.5288C2.99389 21.0163 4.17514 22.1694 4.68139 22.5491C6.49545 23.9084 8.30014 24.6444 10.5408 24.9397C11.3564 25.0428 13.1329 25.01 13.9439 24.8694C16.1142 24.4991 18.1298 23.5709 19.6954 22.2256L19.972 21.9913L18.1954 20.2147C17.2204 19.2397 16.4095 18.4428 16.3908 18.4428C16.372 18.4428 16.1986 18.5553 16.0064 18.6959C15.5517 19.0194 14.7454 19.4319 14.2158 19.61C11.6986 20.4538 8.95639 19.8022 7.0767 17.9225C6.52357 17.3741 6.12514 16.8116 5.75951 16.0756C5.22514 14.9975 5.03764 14.1819 5.04233 12.9584C5.04233 12.3491 5.06576 12.0819 5.14545 11.6928C5.60014 9.52719 6.95482 7.75063 8.90014 6.77094C9.3642 6.53657 10.2408 6.24594 10.7048 6.16626C10.8876 6.13344 11.0798 6.10063 11.1408 6.08657L11.2439 6.06782V3.53657V1.00532L11.1408 1.01469C11.0798 1.01469 10.9579 1.02876 10.8689 1.03813Z" fill="#F7B103"/>
<path d="M12.7422 3.52656V6.0625L12.85 6.08125C12.9062 6.09531 13.1406 6.1375 13.3703 6.17969C16.0328 6.67656 18.3156 8.95937 18.8125 11.6219C18.8547 11.8516 18.8969 12.0859 18.9109 12.1422L18.9297 12.25H21.4609C22.8531 12.25 23.9922 12.2359 23.9922 12.2125C23.9922 12.1937 23.9594 11.9125 23.9219 11.5844C23.6688 9.43281 22.8906 7.50156 21.55 5.70156C21.1094 5.11094 19.8813 3.88281 19.2906 3.44219C18.0719 2.53281 16.7359 1.85312 15.4 1.46875C14.6172 1.24375 14.1063 1.15 12.9906 1.02344L12.7422 0.995312V3.52656Z" fill="#F7B103"/>
<path d="M18.9109 13.8641C18.8969 13.925 18.8547 14.1594 18.8125 14.3937C18.6484 15.2609 18.2078 16.2922 17.6828 17.0234C17.5422 17.2156 17.4297 17.3891 17.4297 17.4078C17.4297 17.4266 18.2266 18.2375 19.2016 19.2125L20.9734 20.9844L21.1516 20.7922C21.4703 20.4359 22.0281 19.6578 22.3609 19.0906C23.2 17.6703 23.725 16.1 23.9219 14.4219C23.9594 14.0984 23.9922 13.8172 23.9922 13.7984C23.9922 13.775 22.8531 13.7609 21.4609 13.7609H18.9297L18.9109 13.8641Z" fill="#F7B103"/>
</svg>
