<svg width="24" height="22" viewBox="0 0 24 22" fill="none" xmlns="http://www.w3.org/2000/svg">
<path d="M9.90938 0.753125L9.75 0.9125V3.8V6.6875H11.9766H14.2031V3.8V0.9125L14.0438 0.753125L13.8844 0.59375H11.9766H10.0688L9.90938 0.753125Z" fill="#F7B103"/>
<path d="M0.764447 4.87812C0.47851 4.97187 0.295698 5.11719 0.14101 5.38906L0.000385232 5.63281V13.1C0.000385232 21.3453 -0.0230523 20.7359 0.295698 21.0734C0.380073 21.1578 0.530073 21.2703 0.633197 21.3172C0.81601 21.4016 1.20976 21.4062 12.0004 21.4062C22.716 21.4062 23.1894 21.4016 23.3676 21.3172C23.6066 21.2094 23.8879 20.9 23.9535 20.6703C23.991 20.5437 24.0004 18.3641 23.991 13.0156L23.9769 5.53437L23.8129 5.30469C23.7051 5.15937 23.5598 5.03281 23.4144 4.95312L23.1848 4.83594L19.2332 4.82187L15.2816 4.8125V5.75V6.6875H15.6144C15.9285 6.6875 15.9566 6.69687 16.1066 6.84687C16.3504 7.09062 16.3129 7.44687 16.0223 7.625C15.8723 7.71406 15.7832 7.71875 12.0098 7.71875C7.77695 7.71875 7.95507 7.73281 7.80507 7.4375C7.68788 7.20781 7.71601 7.025 7.89413 6.84687C8.04413 6.69687 8.07226 6.6875 8.38632 6.6875H8.71913V5.75V4.8125L4.84257 4.81719C1.7957 4.81719 0.919135 4.83125 0.764447 4.87812ZM7.41601 10.5453C8.04882 10.8547 8.47069 11.4219 8.58788 12.1109C8.76601 13.1656 8.09569 14.2109 7.05976 14.4922C5.8457 14.8203 4.62226 14.0281 4.40663 12.7672C4.2707 11.9891 4.66445 11.1078 5.34413 10.6719C5.7332 10.4234 6.04726 10.3438 6.59101 10.3578C7.03163 10.3672 7.08788 10.3812 7.41601 10.5453ZM16.7769 12.0594C17.0441 12.2797 17.0113 12.7016 16.716 12.8797C16.5801 12.9641 16.4488 12.9688 14.6816 12.9688C12.6098 12.9688 12.591 12.9641 12.4457 12.6875C12.3566 12.5141 12.3566 12.3922 12.4457 12.2188C12.5957 11.9281 12.5394 11.9375 14.6769 11.9375H16.6316L16.7769 12.0594ZM7.52382 15.3594C8.47538 15.6031 9.38007 16.2172 9.97538 17.0234C10.3644 17.5484 10.6504 18.2469 10.6504 18.6547C10.6457 19.0953 10.2988 19.5547 9.87694 19.6672C9.73632 19.7094 8.77069 19.7187 6.3707 19.7094L3.06132 19.6953L2.83163 19.5547C2.6582 19.4469 2.56913 19.3484 2.4707 19.1562C2.35351 18.9266 2.33945 18.8609 2.3582 18.5703C2.38632 18.0406 2.81288 17.2156 3.36601 16.6156C3.98476 15.95 4.86601 15.4625 5.78945 15.2844C6.23007 15.2 7.04101 15.2328 7.52382 15.3594ZM21.4879 16.4C21.8582 16.5641 21.8394 17.1219 21.4644 17.3141C21.3754 17.3609 20.3769 17.375 17.0723 17.375C12.3754 17.375 12.6004 17.3891 12.4457 17.0938C12.3566 16.9203 12.3566 16.7984 12.4457 16.625C12.6004 16.325 12.2957 16.3438 17.0488 16.3438C20.2129 16.3438 21.4035 16.3578 21.4879 16.4Z" fill="#F7B103"/>
<path d="M6.18775 11.414C5.52213 11.6156 5.23619 12.3375 5.569 12.9703C5.76119 13.3406 6.03775 13.5 6.48775 13.5C7.15807 13.5046 7.55651 13.1015 7.55651 12.4265C7.56119 12.0843 7.43932 11.8218 7.19557 11.6156C6.92838 11.4 6.51588 11.3156 6.18775 11.414Z" fill="#F7B103"/>
<path d="M5.6264 16.4022C4.68422 16.6928 4.00453 17.2506 3.58265 18.0897C3.24984 18.76 2.8889 18.685 6.47484 18.685H9.57797L9.54516 18.5303C9.52641 18.4506 9.42797 18.2022 9.32016 17.9912C8.97797 17.2975 8.27484 16.6975 7.50141 16.4303C7.26703 16.3506 7.06078 16.3225 6.58734 16.3131C6.05297 16.2944 5.93578 16.3084 5.6264 16.4022Z" fill="#F7B103"/>
</svg>
