<svg width="64" height="64" viewBox="0 0 64 64" fill="none" xmlns="http://www.w3.org/2000/svg">
<rect width="64" height="64" rx="12" fill="white"/>
<path d="M24.5 21.3438V23.5H32H39.5V21.3438V19.1875H32H24.5V21.3438Z" fill="#F7B103"/>
<path d="M24.2625 25.9187C22.675 28.2563 21.65 31.3313 21.3813 34.5188C21.3375 35 21.3125 37.2188 21.3125 40.0687V44.8125H28.8063H36.3063L36.3313 39.5812C36.3562 33.925 36.3562 33.9688 36.7188 32.15C37.1313 30.1062 38.0688 27.775 39.0938 26.2312C39.3188 25.8937 39.5 25.6 39.5 25.5875C39.5 25.575 36.125 25.5625 32 25.5625H24.5063L24.2625 25.9187Z" fill="#F7B103"/>
<path d="M40.4148 28.0187C39.5023 29.6438 38.8898 31.4812 38.5586 33.5938C38.4211 34.4375 38.4148 34.6562 38.3961 39.6375L38.3711 44.8125H40.5336H42.6961L42.6711 39.5812C42.6523 35.05 42.6336 34.2437 42.5398 33.625C42.2273 31.5 41.7398 29.7875 40.9961 28.1875C40.8523 27.875 40.7086 27.625 40.6836 27.625C40.6586 27.625 40.5336 27.8 40.4148 28.0187Z" fill="#F7B103"/>
</svg>
