<svg width="25" height="24" viewBox="0 0 25 24" fill="none" xmlns="http://www.w3.org/2000/svg">
<g clip-path="url(#clip0_1410_10327)">
<path d="M12.102 13.7649C12.102 13.7652 12.1021 13.7655 12.1024 13.7657L12.8069 14.4703C13.1974 14.8608 13.8306 14.8608 14.2211 14.4703L21.273 7.41838C21.6635 7.02791 22.2965 7.02791 22.687 7.41837C23.0775 7.80884 23.0775 8.44191 22.687 8.83237L14.2211 17.2983C13.8306 17.6888 13.1974 17.6888 12.8069 17.2983L7.857 12.3484C7.46653 11.9579 7.46653 11.3248 7.857 10.9344C8.24747 10.5439 8.88053 10.5439 9.271 10.9344L10.689 12.3524L12.1016 13.764C12.1019 13.7642 12.102 13.7646 12.102 13.7649ZM12.8089 11.6423C12.4196 11.253 12.4196 10.6217 12.8089 10.2324L16.3511 6.68945C16.7404 6.30006 17.3717 6.30003 17.761 6.68937C18.1504 7.07875 18.1504 7.71003 17.7611 8.09945L14.219 11.6422C13.8297 12.0317 13.1983 12.0317 12.8089 11.6423ZM8.5705 15.8859C8.96069 16.2761 8.96069 16.9087 8.5705 17.2989C8.18031 17.6891 7.54769 17.6891 7.1575 17.2989L2.207 12.3484C1.81653 11.9579 1.81683 11.3245 2.20729 10.9341C2.59744 10.5439 3.23027 10.5436 3.62042 10.9338L4.3265 11.6399C4.32678 11.6402 4.32678 11.6406 4.3265 11.6409C4.32622 11.6412 4.32622 11.6416 4.3265 11.6419L8.5705 15.8859Z" fill="#63605F"/>
</g>
<defs>
<clipPath id="clip0_1410_10327">
<rect width="24" height="24" fill="white" transform="translate(0.5)"/>
</clipPath>
</defs>
</svg>
